<svg xmlns="http://www.w3.org/2000/svg" viewBox="0 0 240 336" class="cromo__face" aria-hidden="true"><defs><linearGradient id="cha04-sky-r4" x1="0" y1="0" x2="0" y2="1"><stop offset="0" stop-color="#e3babc"></stop><stop offset="1" stop-color="#893f5c"></stop></linearGradient><pattern id="cha04-dots-r4" width="6" height="6" patternUnits="userSpaceOnUse"><circle cx="3" cy="3" r="1.25" fill="#1B0C22"></circle></pattern><linearGradient id="cha04-fade-r4" x1="0" y1="0" x2="0" y2="1"><stop offset="0" stop-color="#fff" stop-opacity="0"></stop><stop offset="1" stop-color="#fff"></stop></linearGradient><mask id="cha04-halftone-r4"><rect y="150" width="240" height="186" fill="url(#cha04-fade-r4)"></rect></mask></defs><rect width="240" height="336" fill="url(#cha04-sky-r4)"></rect><circle cx="176" cy="112" r="44" fill="#FFD66B" opacity="0.95"></circle><g transform="translate(0 108) scale(1.2)"><g transform="translate(200 0) scale(-1 1)"><path d="M8 128 V76 Q100 30 192 76 V128 Z" fill="#6f394c"></path><path d="M30 128 V96 A12 12 0 0 1 54 96 V128 Z" fill="#824453"></path><path d="M88 128 V96 A12 12 0 0 1 112 96 V128 Z" fill="#824453"></path><path d="M146 128 V96 A12 12 0 0 1 170 96 V128 Z" fill="#824453"></path><rect x="30" y="78" width="4" height="50" fill="#1B0C22"></rect><rect x="166" y="78" width="4" height="50" fill="#1B0C22"></rect><g><g><path d="M24 64 H43 L38.5 84 H18 Z" fill="#daa3a6"></path><circle cx="28.25" cy="84" r="10.25" fill="#daa3a6"></circle></g><g><path d="M43 64 H62 L59 84 H38.5 Z" fill="#FFF1DA"></path><circle cx="48.75" cy="84" r="10.25" fill="#FFF1DA"></circle></g><g><path d="M62 64 H81 L79.5 84 H59 Z" fill="#daa3a6"></path><circle cx="69.25" cy="84" r="10.25" fill="#daa3a6"></circle></g><g><path d="M81 64 H100 L100 84 H79.5 Z" fill="#FFF1DA"></path><circle cx="89.75" cy="84" r="10.25" fill="#FFF1DA"></circle></g><g><path d="M100 64 H119 L120.5 84 H100 Z" fill="#daa3a6"></path><circle cx="110.25" cy="84" r="10.25" fill="#daa3a6"></circle></g><g><path d="M119 64 H138 L141 84 H120.5 Z" fill="#FFF1DA"></path><circle cx="130.75" cy="84" r="10.25" fill="#FFF1DA"></circle></g><g><path d="M138 64 H157 L161.5 84 H141 Z" fill="#daa3a6"></path><circle cx="151.25" cy="84" r="10.25" fill="#daa3a6"></circle></g><g><path d="M157 64 H176 L182 84 H161.5 Z" fill="#FFF1DA"></path><circle cx="171.75" cy="84" r="10.25" fill="#FFF1DA"></circle></g><rect x="22" y="61" width="156" height="4" fill="#1B0C22"></rect></g><rect x="22" y="120" width="156" height="5" fill="#603142"></rect><rect x="24" y="124" width="152" height="36" fill="#432135"></rect><g><rect x="36" y="110" width="36" height="12" fill="#F29A3D" stroke="#1B0C22" stroke-width="1.2"></rect><circle cx="43" cy="107" r="5" fill="#FFD66B"></circle><circle cx="54" cy="107" r="5" fill="#FFD66B"></circle><circle cx="65" cy="107" r="5" fill="#FFD66B"></circle><circle cx="48.5" cy="99" r="5" fill="#FFD66B"></circle><circle cx="59.5" cy="99" r="5" fill="#FFD66B"></circle></g><g><rect x="80" y="110" width="36" height="12" fill="#F29A3D" stroke="#1B0C22" stroke-width="1.2"></rect><circle cx="87" cy="107" r="5" fill="#275544"></circle><circle cx="98" cy="107" r="5" fill="#275544"></circle><circle cx="109" cy="107" r="5" fill="#275544"></circle><circle cx="92.5" cy="99" r="5" fill="#275544"></circle><circle cx="103.5" cy="99" r="5" fill="#275544"></circle></g><g><rect x="124" y="110" width="36" height="12" fill="#F29A3D" stroke="#1B0C22" stroke-width="1.2"></rect><circle cx="131" cy="107" r="5" fill="#F29A3D"></circle><circle cx="142" cy="107" r="5" fill="#F29A3D"></circle><circle cx="153" cy="107" r="5" fill="#F29A3D"></circle><circle cx="136.5" cy="99" r="5" fill="#F29A3D"></circle><circle cx="147.5" cy="99" r="5" fill="#F29A3D"></circle></g><rect x="0" y="158" width="200" height="22" fill="#552c3c"></rect></g></g><rect width="240" height="336" fill="url(#cha04-dots-r4)" mask="url(#cha04-halftone-r4)" opacity="0.22"></rect><g font-family="var(--font-display)" font-weight="900" font-size="33" letter-spacing="0.5"><text x="19.485" y="43.971" fill="#432135" opacity="0.85">MERCADO DE</text><text x="19.485" y="73.968" fill="#432135" opacity="0.85">VALLEHERMOSO</text><text x="18" y="41.991" fill="#FFF1DA">MERCADO DE</text><text x="18" y="71.988" fill="#FFF1DA">VALLEHERMOSO</text></g><rect y="300" width="240" height="36" fill="#1B0C22"></rect><text x="18" y="322.14" font-family="var(--font-mono)" font-weight="500" font-size="11.5" letter-spacing="0.8" fill="#FFF1DA">CHA 04 · ×300</text><circle cx="160.373255" cy="316.91999999999996" r="3.4" fill="#9AA4B8"></circle><text x="222" y="322.14" text-anchor="end" font-family="var(--font-display)" font-weight="800" font-size="14.5" letter-spacing="0.8" fill="#FFD66B">COMMON</text></svg>