<svg xmlns="http://www.w3.org/2000/svg" viewBox="0 0 240 336" class="cromo__face" aria-hidden="true"><defs><linearGradient id="cha06-sky-r6" x1="0" y1="0" x2="0" y2="1"><stop offset="0" stop-color="#e3babc"></stop><stop offset="1" stop-color="#893f5c"></stop></linearGradient><pattern id="cha06-dots-r6" width="6" height="6" patternUnits="userSpaceOnUse"><circle cx="3" cy="3" r="1.25" fill="#1B0C22"></circle></pattern><linearGradient id="cha06-fade-r6" x1="0" y1="0" x2="0" y2="1"><stop offset="0" stop-color="#fff" stop-opacity="0"></stop><stop offset="1" stop-color="#fff"></stop></linearGradient><mask id="cha06-halftone-r6"><rect y="150" width="240" height="186" fill="url(#cha06-fade-r6)"></rect></mask></defs><rect width="240" height="336" fill="url(#cha06-sky-r6)"></rect><circle cx="176" cy="112" r="44" fill="#FFD66B" opacity="0.95"></circle><g transform="translate(0 108) scale(1.2)"><g><defs><pattern id="cha06-win-r6" width="16" height="20" patternUnits="userSpaceOnUse"><rect x="4" y="4" width="8" height="11" fill="#824453"></rect></pattern></defs><path d="M0 160 V58 H44 V46 H96 V62 H138 V40 H200 V160 Z" fill="#6f394c"></path><rect x="0" y="64" width="200" height="96" fill="url(#cha06-win-r6)"></rect></g><rect x="0" y="118" width="200" height="62" fill="#552c3c"></rect><rect x="0" y="116" width="200" height="4" fill="#FFF1DA" opacity="0.5"></rect><path d="M40 128 H128 L146 162 H22 Z" fill="#1B0C22"></path><rect x="37.9" y="132" width="92.2" height="1.8" fill="#FFF1DA" opacity="0.3"></rect><rect x="34.72" y="138" width="98.56" height="1.8" fill="#FFF1DA" opacity="0.4"></rect><rect x="31.54" y="144" width="104.92" height="1.8" fill="#FFF1DA" opacity="0.5"></rect><rect x="28.36" y="150" width="111.28" height="1.8" fill="#FFF1DA" opacity="0.6000000000000001"></rect><rect x="25.18" y="156" width="117.64" height="1.8" fill="#FFF1DA" opacity="0.7"></rect><g fill="#1B0C22"><rect x="36" y="104" width="96" height="2.6"></rect><rect x="38" y="106" width="1.6" height="22"></rect><rect x="45.4" y="106" width="1.6" height="22"></rect><rect x="52.8" y="106" width="1.6" height="22"></rect><rect x="60.2" y="106" width="1.6" height="22"></rect><rect x="67.6" y="106" width="1.6" height="22"></rect><rect x="75" y="106" width="1.6" height="22"></rect><rect x="82.4" y="106" width="1.6" height="22"></rect><rect x="89.80000000000001" y="106" width="1.6" height="22"></rect><rect x="97.2" y="106" width="1.6" height="22"></rect><rect x="104.60000000000001" y="106" width="1.6" height="22"></rect><rect x="112" y="106" width="1.6" height="22"></rect><rect x="119.4" y="106" width="1.6" height="22"></rect><rect x="126.80000000000001" y="106" width="1.6" height="22"></rect><path d="M36 104 L18 140 H21 L39 106 Z M132 104 L150 140 H147 L129 106 Z"></path><rect x="34" y="96" width="4" height="34"></rect><rect x="130" y="96" width="4" height="34"></rect></g><circle cx="36" cy="93" r="5" fill="#FFE9A8"></circle><circle cx="132" cy="93" r="5" fill="#FFE9A8"></circle><g><rect x="168.5" y="82" width="3" height="86" fill="#1B0C22"></rect><path d="M170 44 L192 66 L170 88 L148 66 Z" fill="#FFF1DA" stroke="#F29A3D" stroke-width="3.4" stroke-linejoin="round"></path><rect x="146" y="60" width="48" height="12" fill="#1B0C22"></rect><text x="170" y="69.6" text-anchor="middle" font-size="9.5" font-weight="900" letter-spacing="0.8" fill="#FFF1DA" font-family="var(--font-display)">METRO</text></g></g><rect width="240" height="336" fill="url(#cha06-dots-r6)" mask="url(#cha06-halftone-r6)" opacity="0.22"></rect><rect x="3" y="3" width="234" height="294" rx="10" fill="none" stroke="#C1666B" stroke-width="2"></rect><g font-family="var(--font-display)" font-weight="900" font-size="33" letter-spacing="0.5"><text x="19.485" y="43.971" fill="#432135" opacity="0.85">ESTACIÓN DE</text><text x="19.485" y="73.968" fill="#432135" opacity="0.85">CHAMBERÍ</text><text x="18" y="41.991" fill="#FFF1DA">ESTACIÓN DE</text><text x="18" y="71.988" fill="#FFF1DA">CHAMBERÍ</text></g><rect y="300" width="240" height="36" fill="#1B0C22"></rect><text x="18" y="322.14" font-family="var(--font-mono)" font-weight="500" font-size="11.5" letter-spacing="0.8" fill="#FFF1DA">CHA 06 · ×90</text><circle cx="144.883705" cy="316.91999999999996" r="3.4" fill="#3DDC97"></circle><text x="222" y="322.14" text-anchor="end" font-family="var(--font-display)" font-weight="800" font-size="14.5" letter-spacing="0.8" fill="#FFD66B">UNCOMMON</text></svg>