<svg xmlns="http://www.w3.org/2000/svg" viewBox="0 0 240 336" class="cromo__face" aria-hidden="true"><defs><linearGradient id="lat11-sky-rb" x1="0" y1="0" x2="0" y2="1"><stop offset="0" stop-color="#fad5b4"></stop><stop offset="1" stop-color="#a05a54"></stop></linearGradient><pattern id="lat11-dots-rb" width="6" height="6" patternUnits="userSpaceOnUse"><circle cx="3" cy="3" r="1.25" fill="#1B0C22"></circle></pattern><linearGradient id="lat11-fade-rb" x1="0" y1="0" x2="0" y2="1"><stop offset="0" stop-color="#fff" stop-opacity="0"></stop><stop offset="1" stop-color="#fff"></stop></linearGradient><mask id="lat11-halftone-rb"><rect y="150" width="240" height="186" fill="url(#lat11-fade-rb)"></rect></mask><linearGradient id="lat11-holo-rb" x1="0" y1="0" x2="1" y2="1"><stop offset="0" stop-color="#ff6f91"></stop><stop offset=".22" stop-color="#ffc75f"></stop><stop offset=".4" stop-color="#f9f871"></stop><stop offset=".56" stop-color="#6ef3a5"></stop><stop offset=".72" stop-color="#4ec9ff"></stop><stop offset=".88" stop-color="#b58cff"></stop><stop offset="1" stop-color="#ff6f91"></stop></linearGradient><linearGradient id="lat11-streak-rb" x1="0" y1="0" x2="1" y2="1"><stop offset=".34" stop-color="#fff" stop-opacity="0"></stop><stop offset=".47" stop-color="#fff" stop-opacity="0.3"></stop><stop offset=".6" stop-color="#fff" stop-opacity="0"></stop></linearGradient></defs><rect width="240" height="336" fill="url(#lat11-sky-rb)"></rect><circle cx="176" cy="112" r="44" fill="#FFD66B" opacity="0.95"></circle><g transform="translate(0 108) scale(1.2)"><rect x="66" y="70" width="68" height="34" fill="#74493a"></rect><path d="M74 98 V84 A3 3 0 0 1 80 84 V98 Z" fill="#1B0C22"></path><path d="M90 98 V84 A3 3 0 0 1 96 84 V98 Z" fill="#1B0C22"></path><path d="M104 98 V84 A3 3 0 0 1 110 84 V98 Z" fill="#1B0C22"></path><path d="M120 98 V84 A3 3 0 0 1 126 84 V98 Z" fill="#1B0C22"></path><path d="M62 72 C62 34 138 34 138 72 Z" fill="#4e2f31"></path><path d="M100 44 V72 M83 48 L87 72 M117 48 L113 72" fill="none" stroke="#74493a" stroke-width="1.4"></path><rect x="94" y="30" width="12" height="15" fill="#74493a"></rect><path d="M92 31 C92 24 108 24 108 31 Z" fill="#4e2f31"></path><path d="M100 8 V24 M95 13 H105" fill="none" stroke="#1B0C22" stroke-width="2"></path><g><rect x="20" y="62" width="26" height="98" fill="#74493a"></rect><rect x="18" y="60" width="30" height="4" fill="#FFF1DA"></rect><path d="M27 98 V86 A6 6 0 0 1 39 86 V98 Z" fill="#1B0C22"></path><path d="M30 97 C30 89 36 89 36 97 Z" fill="#FFD66B"></path><rect x="29" y="112" width="8" height="16" rx="4" fill="#1B0C22"></rect><path d="M18 60 H48 L44 50 C40 44 36 34 33 18 C30 34 26 44 22 50 Z" fill="#1B0C22"></path><circle cx="33" cy="16" r="2.2" fill="#FFD66B"></circle><path d="M33 3 V14 M29.5 7 H36.5" fill="none" stroke="#1B0C22" stroke-width="1.6"></path></g><g transform="translate(200 0) scale(-1 1)"><g><rect x="20" y="62" width="26" height="98" fill="#74493a"></rect><rect x="18" y="60" width="30" height="4" fill="#FFF1DA"></rect><path d="M27 98 V86 A6 6 0 0 1 39 86 V98 Z" fill="#1B0C22"></path><path d="M30 97 C30 89 36 89 36 97 Z" fill="#FFD66B"></path><rect x="29" y="112" width="8" height="16" rx="4" fill="#1B0C22"></rect><path d="M18 60 H48 L44 50 C40 44 36 34 33 18 C30 34 26 44 22 50 Z" fill="#1B0C22"></path><circle cx="33" cy="16" r="2.2" fill="#FFD66B"></circle><path d="M33 3 V14 M29.5 7 H36.5" fill="none" stroke="#1B0C22" stroke-width="1.6"></path></g></g><rect x="46" y="102" width="108" height="58" fill="#5c3933"></rect><rect x="44" y="100" width="112" height="4" fill="#FFF1DA"></rect><circle cx="100" cy="114" r="7" fill="#FFE9A8"></circle><circle cx="100" cy="114" r="7" fill="none" stroke="#1B0C22" stroke-width="1.6"></circle><path d="M86 160 V132 A14 14 0 0 1 114 132 V160 Z" fill="#1B0C22"></path><path d="M58 160 V136 A7 7 0 0 1 72 136 V160 Z M128 160 V136 A7 7 0 0 1 142 136 V160 Z" fill="#1B0C22"></path><rect x="0" y="158" width="200" height="22" fill="#674135"></rect></g><rect width="240" height="336" fill="url(#lat11-dots-rb)" mask="url(#lat11-halftone-rb)" opacity="0.22"></rect><rect width="240" height="300" fill="url(#lat11-holo-rb)" opacity="0.34" style="mix-blend-mode: overlay;"></rect><rect width="240" height="300" fill="url(#lat11-streak-rb)" style="mix-blend-mode: screen;"></rect><path d="M43.199999999999996 55 L44.599999999999994 58.6 L48.199999999999996 60 L44.599999999999994 61.4 L43.199999999999996 65 L41.8 61.4 L38.199999999999996 60 L41.8 58.6 Z M196.79999999999998 41 L198.76 46.04 L203.79999999999998 48 L198.76 49.96 L196.79999999999998 55 L194.83999999999997 49.96 L189.79999999999998 48 L194.83999999999997 46.04 Z M168 182 L169.12 184.88 L172 186 L169.12 187.12 L168 190 L166.88 187.12 L164 186 L166.88 184.88 Z" fill="#ffffff" opacity="0.92"></path><g font-family="var(--font-display)" font-weight="900" font-size="33" letter-spacing="0.5"><text x="19.485" y="43.971" fill="#4e2f31" opacity="0.85">SAN FRANCISCO</text><text x="19.485" y="73.968" fill="#4e2f31" opacity="0.85">EL GRANDE</text><text x="18" y="41.991" fill="#FFF1DA">SAN FRANCISCO</text><text x="18" y="71.988" fill="#FFF1DA">EL GRANDE</text></g><rect y="300" width="240" height="36" fill="#1B0C22"></rect><text x="18" y="322.14" font-family="var(--font-mono)" font-weight="500" font-size="11.5" letter-spacing="0.8" fill="#FFF1DA">LAT 11 · ×9</text><circle cx="187.837485" cy="316.91999999999996" r="3.4" fill="#B061FF"></circle><text x="222" y="322.14" text-anchor="end" font-family="var(--font-display)" font-weight="800" font-size="14.5" letter-spacing="0.8" fill="#FFD66B">EPIC</text></svg>