<svg xmlns="http://www.w3.org/2000/svg" viewBox="0 0 240 336" class="cromo__face" aria-hidden="true"><defs><linearGradient id="lav08-sky-r8" x1="0" y1="0" x2="0" y2="1"><stop offset="0" stop-color="#f3b3a1"></stop><stop offset="1" stop-color="#993840"></stop></linearGradient><pattern id="lav08-dots-r8" width="6" height="6" patternUnits="userSpaceOnUse"><circle cx="3" cy="3" r="1.25" fill="#1B0C22"></circle></pattern><linearGradient id="lav08-fade-r8" x1="0" y1="0" x2="0" y2="1"><stop offset="0" stop-color="#fff" stop-opacity="0"></stop><stop offset="1" stop-color="#fff"></stop></linearGradient><mask id="lav08-halftone-r8"><rect y="150" width="240" height="186" fill="url(#lav08-fade-r8)"></rect></mask></defs><rect width="240" height="336" fill="url(#lav08-sky-r8)"></rect><circle cx="176" cy="112" r="44" fill="#FFD66B" opacity="0.95"></circle><g transform="translate(0 108) scale(1.2)"><circle cx="100" cy="26" r="9" fill="#FFD66B"></circle><circle cx="100" cy="26" r="4" fill="#1B0C22"></circle><rect x="20" y="34" width="160" height="2.4" fill="#FFF1DA"></rect><rect x="22" y="36" width="3" height="8" fill="#FFF1DA"></rect><rect x="30" y="36" width="3" height="8" fill="#FFF1DA"></rect><rect x="38" y="36" width="3" height="8" fill="#FFF1DA"></rect><rect x="46" y="36" width="3" height="8" fill="#FFF1DA"></rect><rect x="54" y="36" width="3" height="8" fill="#FFF1DA"></rect><rect x="62" y="36" width="3" height="8" fill="#FFF1DA"></rect><rect x="70" y="36" width="3" height="8" fill="#FFF1DA"></rect><rect x="78" y="36" width="3" height="8" fill="#FFF1DA"></rect><rect x="86" y="36" width="3" height="8" fill="#FFF1DA"></rect><rect x="94" y="36" width="3" height="8" fill="#FFF1DA"></rect><rect x="102" y="36" width="3" height="8" fill="#FFF1DA"></rect><rect x="110" y="36" width="3" height="8" fill="#FFF1DA"></rect><rect x="118" y="36" width="3" height="8" fill="#FFF1DA"></rect><rect x="126" y="36" width="3" height="8" fill="#FFF1DA"></rect><rect x="134" y="36" width="3" height="8" fill="#FFF1DA"></rect><rect x="142" y="36" width="3" height="8" fill="#FFF1DA"></rect><rect x="150" y="36" width="3" height="8" fill="#FFF1DA"></rect><rect x="158" y="36" width="3" height="8" fill="#FFF1DA"></rect><rect x="166" y="36" width="3" height="8" fill="#FFF1DA"></rect><rect x="174" y="36" width="3" height="8" fill="#FFF1DA"></rect><rect x="20" y="50" width="160" height="110" fill="#6e2b29"></rect><rect x="16" y="44" width="168" height="7" fill="#FFF1DA"></rect><g><path d="M36 104 V70 A12 12 0 0 1 60 70 V104 Z" fill="#1B0C22"></path><path d="M37 104 V70 A11 11 0 0 1 48 59 C46 76 44 92 37 104 Z" fill="#F29A3D"></path><path d="M59 104 V70 A11 11 0 0 0 48 59 C50 76 52 92 59 104 Z" fill="#F29A3D"></path><rect x="33" y="104" width="30" height="3" fill="#FFF1DA"></rect></g><g><path d="M88 104 V70 A12 12 0 0 1 112 70 V104 Z" fill="#1B0C22"></path><path d="M89 104 V70 A11 11 0 0 1 100 59 C98 76 96 92 89 104 Z" fill="#F29A3D"></path><path d="M111 104 V70 A11 11 0 0 0 100 59 C102 76 104 92 111 104 Z" fill="#F29A3D"></path><rect x="85" y="104" width="30" height="3" fill="#FFF1DA"></rect></g><g><path d="M140 104 V70 A12 12 0 0 1 164 70 V104 Z" fill="#1B0C22"></path><path d="M141 104 V70 A11 11 0 0 1 152 59 C150 76 148 92 141 104 Z" fill="#F29A3D"></path><path d="M163 104 V70 A11 11 0 0 0 152 59 C154 76 156 92 163 104 Z" fill="#F29A3D"></path><rect x="137" y="104" width="30" height="3" fill="#FFF1DA"></rect></g><path d="M26 118 H174 L164 108 H36 Z" fill="#1B0C22"></path><rect x="26" y="118" width="148" height="4" fill="#FFD66B"></rect><circle cx="30" cy="126" r="2" fill="#FFE9A8"></circle><circle cx="40" cy="126" r="2" fill="#FFE9A8"></circle><circle cx="50" cy="126" r="2" fill="#FFE9A8"></circle><circle cx="60" cy="126" r="2" fill="#FFE9A8"></circle><circle cx="70" cy="126" r="2" fill="#FFE9A8"></circle><circle cx="80" cy="126" r="2" fill="#FFE9A8"></circle><circle cx="90" cy="126" r="2" fill="#FFE9A8"></circle><circle cx="100" cy="126" r="2" fill="#FFE9A8"></circle><circle cx="110" cy="126" r="2" fill="#FFE9A8"></circle><circle cx="120" cy="126" r="2" fill="#FFE9A8"></circle><circle cx="130" cy="126" r="2" fill="#FFE9A8"></circle><circle cx="140" cy="126" r="2" fill="#FFE9A8"></circle><circle cx="150" cy="126" r="2" fill="#FFE9A8"></circle><circle cx="160" cy="126" r="2" fill="#FFE9A8"></circle><circle cx="170" cy="126" r="2" fill="#FFE9A8"></circle><g><rect x="46" y="132" width="18" height="28" fill="#1B0C22"></rect><rect x="49" y="135" width="12" height="10" fill="#803228"></rect></g><g><rect x="76" y="132" width="18" height="28" fill="#1B0C22"></rect><rect x="79" y="135" width="12" height="10" fill="#803228"></rect></g><g><rect x="106" y="132" width="18" height="28" fill="#1B0C22"></rect><rect x="109" y="135" width="12" height="10" fill="#803228"></rect></g><g><rect x="136" y="132" width="18" height="28" fill="#1B0C22"></rect><rect x="139" y="135" width="12" height="10" fill="#803228"></rect></g><g><rect x="22" y="132" width="14" height="22" fill="#FFF1DA"></rect><rect x="24" y="135" width="10" height="6" fill="#F29A3D"></rect><rect x="24" y="144" width="10" height="2" fill="#1B0C22"></rect></g><g><rect x="164" y="132" width="14" height="22" fill="#FFF1DA"></rect><rect x="166" y="135" width="10" height="6" fill="#F29A3D"></rect><rect x="166" y="144" width="10" height="2" fill="#1B0C22"></rect></g><rect x="0" y="158" width="200" height="22" fill="#612626"></rect></g><rect width="240" height="336" fill="url(#lav08-dots-r8)" mask="url(#lav08-halftone-r8)" opacity="0.22"></rect><rect x="3" y="3" width="234" height="294" rx="10" fill="none" stroke="#E4572E" stroke-width="2"></rect><g font-family="var(--font-display)" font-weight="900" font-size="33" letter-spacing="0.5"><text x="19.485" y="43.971" fill="#4a1e28" opacity="0.85">TEATRO</text><text x="19.485" y="73.968" fill="#4a1e28" opacity="0.85">VALLE-INCLÁN</text><text x="18" y="41.991" fill="#FFF1DA">TEATRO</text><text x="18" y="71.988" fill="#FFF1DA">VALLE-INCLÁN</text></g><rect y="300" width="240" height="36" fill="#1B0C22"></rect><text x="18" y="322.14" font-family="var(--font-mono)" font-weight="500" font-size="11.5" letter-spacing="0.8" fill="#FFF1DA">LAV 08 · ×90</text><circle cx="144.883705" cy="316.91999999999996" r="3.4" fill="#3DDC97"></circle><text x="222" y="322.14" text-anchor="end" font-family="var(--font-display)" font-weight="800" font-size="14.5" letter-spacing="0.8" fill="#FFD66B">UNCOMMON</text></svg>