<svg xmlns="http://www.w3.org/2000/svg" viewBox="0 0 240 336" class="cromo__face" aria-hidden="true"><defs><linearGradient id="lav01-sky-r1" x1="0" y1="0" x2="0" y2="1"><stop offset="0" stop-color="#f3b3a1"></stop><stop offset="1" stop-color="#993840"></stop></linearGradient><pattern id="lav01-dots-r1" width="6" height="6" patternUnits="userSpaceOnUse"><circle cx="3" cy="3" r="1.25" fill="#1B0C22"></circle></pattern><linearGradient id="lav01-fade-r1" x1="0" y1="0" x2="0" y2="1"><stop offset="0" stop-color="#fff" stop-opacity="0"></stop><stop offset="1" stop-color="#fff"></stop></linearGradient><mask id="lav01-halftone-r1"><rect y="150" width="240" height="186" fill="url(#lav01-fade-r1)"></rect></mask></defs><rect width="240" height="336" fill="url(#lav01-sky-r1)"></rect><circle cx="176" cy="96" r="44" fill="#FFD66B" opacity="0.95"></circle><g transform="translate(0 108) scale(1.2)"><defs><pattern id="lav01-rail-r1" width="5" height="12" patternUnits="userSpaceOnUse"><rect x="1.8" width="1.4" height="12" fill="#1B0C22"></rect></pattern></defs><rect x="34" y="28" width="132" height="132" fill="#6e2b29"></rect><path d="M0 10 L34 28 V160 H0 Z" fill="#4a1e28"></path><path d="M200 10 L166 28 V160 H200 Z" fill="#4a1e28"></path><rect x="30" y="24" width="140" height="5" fill="#FFF1DA"></rect><g><rect x="46" y="42" width="12" height="24" fill="#1B0C22"></rect><rect x="78" y="42" width="12" height="24" fill="#1B0C22"></rect><rect x="110" y="42" width="12" height="24" fill="#1B0C22"></rect><rect x="142" y="42" width="12" height="24" fill="#1B0C22"></rect><rect x="34" y="54" width="132" height="12" fill="url(#lav01-rail-r1)"></rect><rect x="34" y="53" width="132" height="2" fill="#1B0C22"></rect><rect x="34" y="66" width="132" height="4" fill="#FFF1DA"></rect><path d="M0 52 L34 66 V70 L0 57 Z M200 52 L166 66 V70 L200 57 Z" fill="#FFF1DA"></path><path d="M0 39 L34 53 V55 L0 41 Z M200 39 L166 53 V55 L200 41 Z" fill="#1B0C22"></path><circle cx="94" cy="51" r="3" fill="#275544"></circle></g><g><rect x="46" y="82" width="12" height="24" fill="#1B0C22"></rect><rect x="78" y="82" width="12" height="24" fill="#1B0C22"></rect><rect x="110" y="82" width="12" height="24" fill="#1B0C22"></rect><rect x="142" y="82" width="12" height="24" fill="#1B0C22"></rect><rect x="34" y="94" width="132" height="12" fill="url(#lav01-rail-r1)"></rect><rect x="34" y="93" width="132" height="2" fill="#1B0C22"></rect><rect x="34" y="106" width="132" height="4" fill="#FFF1DA"></rect><path d="M0 92 L34 106 V110 L0 97 Z M200 92 L166 106 V110 L200 97 Z" fill="#FFF1DA"></path><path d="M0 79 L34 93 V95 L0 81 Z M200 79 L166 93 V95 L200 81 Z" fill="#1B0C22"></path><circle cx="126" cy="91" r="3" fill="#275544"></circle></g><g><rect x="46" y="122" width="12" height="24" fill="#1B0C22"></rect><rect x="78" y="122" width="12" height="24" fill="#1B0C22"></rect><rect x="110" y="122" width="12" height="24" fill="#1B0C22"></rect><rect x="142" y="122" width="12" height="24" fill="#1B0C22"></rect><rect x="34" y="134" width="132" height="12" fill="url(#lav01-rail-r1)"></rect><rect x="34" y="133" width="132" height="2" fill="#1B0C22"></rect><rect x="34" y="146" width="132" height="4" fill="#FFF1DA"></rect><path d="M0 132 L34 146 V150 L0 137 Z M200 132 L166 146 V150 L200 137 Z" fill="#FFF1DA"></path><path d="M0 119 L34 133 V135 L0 121 Z M200 119 L166 133 V135 L200 121 Z" fill="#1B0C22"></path><circle cx="62" cy="131" r="3" fill="#275544"></circle></g><path d="M0 62 Q100 80 200 60" fill="none" stroke="#1B0C22" stroke-width="0.8"></path><rect x="23.000000000000004" y="66.29520000000001" width="10" height="16" fill="#FFF1DA"></rect><path d="M54 69.38 H66 L68 74.38 L65 74.38 V83.38 H55 V74.38 L52 74.38 Z" fill="#FFD66B"></path><rect x="87" y="70.51920000000001" width="10" height="16" fill="#ef9a82"></rect><path d="M118 69.71279999999999 H130 L132 74.71279999999999 L129 74.71279999999999 V83.71279999999999 H119 V74.71279999999999 L116 74.71279999999999 Z" fill="#F29A3D"></path><rect x="155.00000000000003" y="66.47999999999999" width="10" height="16" fill="#FFF1DA"></rect><rect x="0" y="158" width="200" height="22" fill="#612626"></rect></g><rect width="240" height="336" fill="url(#lav01-dots-r1)" mask="url(#lav01-halftone-r1)" opacity="0.22"></rect><g font-family="var(--font-display)" font-weight="900" font-size="33" letter-spacing="0.5"><text x="19.485" y="43.971" fill="#4a1e28" opacity="0.85">LA CORRALA</text><text x="18" y="41.991" fill="#FFF1DA">LA CORRALA</text></g><rect y="300" width="240" height="36" fill="#1B0C22"></rect><text x="18" y="322.14" font-family="var(--font-mono)" font-weight="500" font-size="11.5" letter-spacing="0.8" fill="#FFF1DA">LAV 01 · ×300</text><circle cx="160.373255" cy="316.91999999999996" r="3.4" fill="#9AA4B8"></circle><text x="222" y="322.14" text-anchor="end" font-family="var(--font-display)" font-weight="800" font-size="14.5" letter-spacing="0.8" fill="#FFD66B">COMMON</text></svg>