<svg xmlns="http://www.w3.org/2000/svg" viewBox="0 0 240 336" class="cromo__face" aria-hidden="true"><defs><linearGradient id="ret07-sky-r7" x1="0" y1="0" x2="0" y2="1"><stop offset="0" stop-color="#a7dcc0"></stop><stop offset="1" stop-color="#4d615f"></stop></linearGradient><pattern id="ret07-dots-r7" width="6" height="6" patternUnits="userSpaceOnUse"><circle cx="3" cy="3" r="1.25" fill="#1B0C22"></circle></pattern><linearGradient id="ret07-fade-r7" x1="0" y1="0" x2="0" y2="1"><stop offset="0" stop-color="#fff" stop-opacity="0"></stop><stop offset="1" stop-color="#fff"></stop></linearGradient><mask id="ret07-halftone-r7"><rect y="150" width="240" height="186" fill="url(#ret07-fade-r7)"></rect></mask></defs><rect width="240" height="336" fill="url(#ret07-sky-r7)"></rect><circle cx="176" cy="112" r="44" fill="#FFD66B" opacity="0.95"></circle><g transform="translate(0 108) scale(1.2)"><path d="M14 150 V100 H34 V88 L39 80 L44 88 V100 H74 V84 H84 V70 L100 50 L116 70 V84 H126 V100 H156 V88 L161 80 L166 88 V100 H186 V150 Z" fill="#325b50"></path><rect x="22" y="108" width="6" height="10" rx="3" fill="#347058"></rect><rect x="50" y="108" width="6" height="10" rx="3" fill="#347058"></rect><rect x="60" y="108" width="6" height="10" rx="3" fill="#347058"></rect><rect x="132" y="108" width="6" height="10" rx="3" fill="#347058"></rect><rect x="142" y="108" width="6" height="10" rx="3" fill="#347058"></rect><rect x="170" y="108" width="6" height="10" rx="3" fill="#347058"></rect><rect x="94" y="72" width="12" height="12" rx="6" fill="#347058"></rect><ellipse cx="100" cy="154" rx="82" ry="12" fill="#2a5045"></ellipse><ellipse cx="100" cy="152" rx="74" ry="8" fill="#89d1ab" opacity="0.75"></ellipse><path d="M68 152 C70 138 84 130 100 130 C116 130 130 138 132 152 Z" fill="#253237"></path><path d="M84 132 H118 L114 114 H90 Z" fill="#1B0C22"></path><circle cx="110" cy="132" r="9" fill="#253237" stroke="#1B0C22" stroke-width="2.4"></circle><circle cx="110" cy="132" r="2" fill="#1B0C22"></circle><path d="M93 116 H107 L106 100 C106 92 94 92 94 100 Z" fill="#1B0C22"></path><circle cx="100" cy="88" r="4.5" fill="#1B0C22"></circle><rect x="96.5" y="81" width="7" height="4" fill="#1B0C22"></rect><rect x="108" y="82" width="1.8" height="30" fill="#1B0C22"></rect><g><g fill="#1B0C22"><ellipse cx="72" cy="127" rx="13" ry="7.5"></ellipse><circle cx="60" cy="120" r="8.5"></circle><ellipse cx="54" cy="123.5" rx="5" ry="4"></ellipse><rect x="62" y="127" width="3.4" height="10" rx="1.2"></rect><rect x="80" y="127" width="3.4" height="10" rx="1.2"></rect></g><path d="M85 125 C92 121 93 113 89 111" fill="none" stroke="#1B0C22" stroke-width="2" stroke-linecap="round"></path></g><g transform="translate(200 0) scale(-1 1)"><g><g fill="#1B0C22"><ellipse cx="72" cy="127" rx="13" ry="7.5"></ellipse><circle cx="60" cy="120" r="8.5"></circle><ellipse cx="54" cy="123.5" rx="5" ry="4"></ellipse><rect x="62" y="127" width="3.4" height="10" rx="1.2"></rect><rect x="80" y="127" width="3.4" height="10" rx="1.2"></rect></g><path d="M85 125 C92 121 93 113 89 111" fill="none" stroke="#1B0C22" stroke-width="2" stroke-linecap="round"></path></g></g><path d="M30 152 C36 124 50 116 62 128" fill="none" stroke="#FFF1DA" stroke-width="2.2" stroke-linecap="round" opacity="0.85"></path><g transform="translate(200 0) scale(-1 1)"><path d="M30 152 C36 124 50 116 62 128" fill="none" stroke="#FFF1DA" stroke-width="2.2" stroke-linecap="round" opacity="0.85"></path></g></g><rect width="240" height="336" fill="url(#ret07-dots-r7)" mask="url(#ret07-halftone-r7)" opacity="0.22"></rect><rect x="3" y="3" width="234" height="294" rx="10" fill="none" stroke="#3BB273" stroke-width="2"></rect><g font-family="var(--font-display)" font-weight="900" font-size="33" letter-spacing="0.5"><text x="19.485" y="43.971" fill="#253237" opacity="0.85">FUENTE DE LA</text><text x="19.485" y="73.968" fill="#253237" opacity="0.85">ALCACHOFA</text><text x="18" y="41.991" fill="#FFF1DA">FUENTE DE LA</text><text x="18" y="71.988" fill="#FFF1DA">ALCACHOFA</text></g><rect y="300" width="240" height="36" fill="#1B0C22"></rect><text x="18" y="322.14" font-family="var(--font-mono)" font-weight="500" font-size="11.5" letter-spacing="0.8" fill="#FFF1DA">RET 07 · ×90</text><circle cx="144.883705" cy="316.91999999999996" r="3.4" fill="#3DDC97"></circle><text x="222" y="322.14" text-anchor="end" font-family="var(--font-display)" font-weight="800" font-size="14.5" letter-spacing="0.8" fill="#FFD66B">UNCOMMON</text></svg>