<svg xmlns="http://www.w3.org/2000/svg" viewBox="0 0 240 336" class="cromo__face" aria-hidden="true"><defs><linearGradient id="ret11-sky-rb" x1="0" y1="0" x2="0" y2="1"><stop offset="0" stop-color="#a7dcc0"></stop><stop offset="1" stop-color="#4d615f"></stop></linearGradient><pattern id="ret11-dots-rb" width="6" height="6" patternUnits="userSpaceOnUse"><circle cx="3" cy="3" r="1.25" fill="#1B0C22"></circle></pattern><linearGradient id="ret11-fade-rb" x1="0" y1="0" x2="0" y2="1"><stop offset="0" stop-color="#fff" stop-opacity="0"></stop><stop offset="1" stop-color="#fff"></stop></linearGradient><mask id="ret11-halftone-rb"><rect y="150" width="240" height="186" fill="url(#ret11-fade-rb)"></rect></mask><linearGradient id="ret11-holo-rb" x1="0" y1="0" x2="1" y2="1"><stop offset="0" stop-color="#ff6f91"></stop><stop offset=".22" stop-color="#ffc75f"></stop><stop offset=".4" stop-color="#f9f871"></stop><stop offset=".56" stop-color="#6ef3a5"></stop><stop offset=".72" stop-color="#4ec9ff"></stop><stop offset=".88" stop-color="#b58cff"></stop><stop offset="1" stop-color="#ff6f91"></stop></linearGradient><linearGradient id="ret11-streak-rb" x1="0" y1="0" x2="1" y2="1"><stop offset=".34" stop-color="#fff" stop-opacity="0"></stop><stop offset=".47" stop-color="#fff" stop-opacity="0.3"></stop><stop offset=".6" stop-color="#fff" stop-opacity="0"></stop></linearGradient></defs><rect width="240" height="336" fill="url(#ret11-sky-rb)"></rect><circle cx="176" cy="112" r="44" fill="#FFD66B" opacity="0.95"></circle><g transform="translate(0 108) scale(1.2)"><rect x="8" y="98" width="184" height="54" fill="#89d1ab" opacity="0.85"></rect><rect x="4" y="94" width="192" height="5" fill="#FFF1DA"></rect><path d="M24 98 V152 M40 98 V152 M56 98 V152 M144 98 V152 M160 98 V152 M176 98 V152 M8 124 H68 M132 124 H192" fill="none" stroke="#1B0C22" stroke-width="1.2"></path><rect x="68" y="70" width="64" height="82" fill="#89d1ab" opacity="0.9"></rect><g><path d="M66 72 C66 26 134 26 134 72 Z" fill="#89d1ab" opacity="0.9"></path><path d="M66 72 C66 26 134 26 134 72 M100 38 V72 M80 44 C84 54 86 62 86 72 M120 44 C116 54 114 62 114 72 M68 58 H132" fill="none" stroke="#1B0C22" stroke-width="1.3"></path><rect x="95" y="30" width="10" height="9" fill="#1B0C22"></rect><path d="M78 70 V152 M90 70 V152 M110 70 V152 M122 70 V152 M68 108 H132" fill="none" stroke="#1B0C22" stroke-width="1.2"></path></g><path d="M92 152 V122 A8 8 0 0 1 108 122 V152 Z" fill="#1B0C22"></path><rect x="0" y="150" width="200" height="30" fill="#26463e"></rect><path d="M90 180 L110 180 L105 150 L95 150 Z" fill="#FFF1DA" opacity="0.35"></path><rect x="4" y="146" width="76" height="9" rx="4.5" fill="#275544"></rect><rect x="120" y="146" width="76" height="9" rx="4.5" fill="#275544"></rect><path d="M11 150 L18 118 L25 150 Z" fill="#275544"></path><path d="M55 150 L62 118 L69 150 Z" fill="#275544"></path><path d="M131 150 L138 118 L145 150 Z" fill="#275544"></path><path d="M175 150 L182 118 L189 150 Z" fill="#275544"></path></g><rect width="240" height="336" fill="url(#ret11-dots-rb)" mask="url(#ret11-halftone-rb)" opacity="0.22"></rect><rect width="240" height="300" fill="url(#ret11-holo-rb)" opacity="0.34" style="mix-blend-mode: overlay;"></rect><rect width="240" height="300" fill="url(#ret11-streak-rb)" style="mix-blend-mode: screen;"></rect><path d="M43.199999999999996 55 L44.599999999999994 58.6 L48.199999999999996 60 L44.599999999999994 61.4 L43.199999999999996 65 L41.8 61.4 L38.199999999999996 60 L41.8 58.6 Z M196.79999999999998 41 L198.76 46.04 L203.79999999999998 48 L198.76 49.96 L196.79999999999998 55 L194.83999999999997 49.96 L189.79999999999998 48 L194.83999999999997 46.04 Z M168 182 L169.12 184.88 L172 186 L169.12 187.12 L168 190 L166.88 187.12 L164 186 L166.88 184.88 Z" fill="#ffffff" opacity="0.92"></path><g font-family="var(--font-display)" font-weight="900" font-size="33" letter-spacing="0.5"><text x="19.485" y="43.971" fill="#253237" opacity="0.85">PALACIO</text><text x="19.485" y="73.968" fill="#253237" opacity="0.85">DE CRISTAL</text><text x="18" y="41.991" fill="#FFF1DA">PALACIO</text><text x="18" y="71.988" fill="#FFF1DA">DE CRISTAL</text></g><rect y="300" width="240" height="36" fill="#1B0C22"></rect><text x="18" y="322.14" font-family="var(--font-mono)" font-weight="500" font-size="11.5" letter-spacing="0.8" fill="#FFF1DA">RET 11 · ×9</text><circle cx="187.837485" cy="316.91999999999996" r="3.4" fill="#B061FF"></circle><text x="222" y="322.14" text-anchor="end" font-family="var(--font-display)" font-weight="800" font-size="14.5" letter-spacing="0.8" fill="#FFD66B">EPIC</text></svg>