<svg xmlns="http://www.w3.org/2000/svg" viewBox="0 0 240 336" class="cromo__face" aria-hidden="true"><defs><linearGradient id="sal05-sky-r5" x1="0" y1="0" x2="0" y2="1"><stop offset="0" stop-color="#a1c9d9"></stop><stop offset="1" stop-color="#474d78"></stop></linearGradient><pattern id="sal05-dots-r5" width="6" height="6" patternUnits="userSpaceOnUse"><circle cx="3" cy="3" r="1.25" fill="#1B0C22"></circle></pattern><linearGradient id="sal05-fade-r5" x1="0" y1="0" x2="0" y2="1"><stop offset="0" stop-color="#fff" stop-opacity="0"></stop><stop offset="1" stop-color="#fff"></stop></linearGradient><mask id="sal05-halftone-r5"><rect y="150" width="240" height="186" fill="url(#sal05-fade-r5)"></rect></mask></defs><rect width="240" height="336" fill="url(#sal05-sky-r5)"></rect><circle cx="176" cy="96" r="44" fill="#FFD66B" opacity="0.95"></circle><g transform="translate(0 108) scale(1.2)"><g><defs><pattern id="sal05-win-r5" width="16" height="20" patternUnits="userSpaceOnUse"><rect x="4" y="4" width="8" height="11" fill="#2d5679"></rect></pattern></defs><path d="M0 160 V62 H44 V50 H96 V66 H138 V44 H200 V160 Z" fill="#2c4769"></path><rect x="0" y="68" width="200" height="92" fill="url(#sal05-win-r5)"></rect></g><g><circle cx="24" cy="48" r="16" fill="#FFE9A8" opacity="0.22"></circle><path d="M16 146 H32 L28 128 H20 Z" fill="#1B0C22"></path><rect x="22" y="54" width="4" height="76" fill="#1B0C22"></rect><path d="M14 38 H34 L30 58 H18 Z" fill="#1B0C22"></path><path d="M17 41 H31 L28.2 55 H19.8 Z" fill="#FFE9A8"></path><path d="M12 38 L24 28 L36 38 Z" fill="#1B0C22"></path><circle cx="24" cy="26" r="2.2" fill="#1B0C22"></circle></g><rect x="0" y="138" width="200" height="8" fill="#FFF1DA" opacity="0.45"></rect><rect x="0" y="144" width="200" height="36" fill="#223752"></rect><rect x="10" y="165" width="22" height="2.4" fill="#FFF1DA" opacity="0.5"></rect><rect x="50" y="165" width="22" height="2.4" fill="#FFF1DA" opacity="0.5"></rect><rect x="90" y="165" width="22" height="2.4" fill="#FFF1DA" opacity="0.5"></rect><rect x="130" y="165" width="22" height="2.4" fill="#FFF1DA" opacity="0.5"></rect><rect x="170" y="165" width="22" height="2.4" fill="#FFF1DA" opacity="0.5"></rect><g><path d="M60 148 V132 Q60 126 68 125 L86 124 L98 110 H138 L152 124 L166 126 Q174 128 174 135 V148 Z" fill="#FFF1DA"></path><path d="M91 124 L101 114 H118 V124 Z M122 124 V114 H136 L146 124 Z" fill="#254967"></path><path d="M112 126 L121 126 L111 148 L102 148 Z" fill="#F29A3D"></path><rect x="112" y="103" width="14" height="6" rx="1.5" fill="#FFD66B"></rect><circle cx="170" cy="132" r="2.4" fill="#FFE9A8"></circle><g><circle cx="82" cy="148" r="9" fill="#1B0C22"></circle><circle cx="82" cy="148" r="3.4" fill="#FFF1DA"></circle></g><g><circle cx="150" cy="148" r="9" fill="#1B0C22"></circle><circle cx="150" cy="148" r="3.4" fill="#FFF1DA"></circle></g></g></g><rect width="240" height="336" fill="url(#sal05-dots-r5)" mask="url(#sal05-halftone-r5)" opacity="0.22"></rect><g font-family="var(--font-display)" font-weight="900" font-size="33" letter-spacing="0.5"><text x="19.485" y="43.971" fill="#222843" opacity="0.85">TAXI BLANCO</text><text x="18" y="41.991" fill="#FFF1DA">TAXI BLANCO</text></g><rect y="300" width="240" height="36" fill="#1B0C22"></rect><text x="18" y="322.14" font-family="var(--font-mono)" font-weight="500" font-size="11.5" letter-spacing="0.8" fill="#FFF1DA">SAL 05 · ×300</text><circle cx="160.373255" cy="316.91999999999996" r="3.4" fill="#9AA4B8"></circle><text x="222" y="322.14" text-anchor="end" font-family="var(--font-display)" font-weight="800" font-size="14.5" letter-spacing="0.8" fill="#FFD66B">COMMON</text></svg>